<svg width="49" height="48" viewBox="0 0 49 48" fill="none" xmlns="http://www.w3.org/2000/svg">
<rect x="0.5" width="48" height="48" fill="#675DA9"/>
<path d="M36.254 12.1845C35.4601 11.4547 32.2461 9.11782 25.0819 9.08581C25.0819 9.08581 16.6372 8.57362 12.5205 12.351C10.2285 14.643 9.42178 17.9915 9.33855 22.153C9.25532 26.3081 9.14647 34.0998 16.6564 36.2125H16.6628L16.6564 39.4329C16.6564 39.4329 16.6116 40.739 17.4695 41.0015C18.5067 41.3216 19.1213 40.3292 20.1137 39.26C20.6579 38.671 21.407 37.8131 21.9768 37.1537C27.1114 37.5826 31.0617 36.5967 31.5099 36.4494C32.547 36.1101 38.418 35.361 39.3719 27.5694C40.3579 19.5536 38.8918 14.4766 36.254 12.1845ZM37.1247 27.006C36.318 33.5107 31.5611 33.9205 30.684 34.2022C30.3126 34.3238 26.8425 35.1882 22.4762 34.9001C22.4762 34.9001 19.2238 38.8247 18.2122 39.8427C18.0521 40.0027 17.8665 40.0667 17.7448 40.0347C17.572 39.9899 17.5207 39.785 17.5271 39.4841C17.5271 39.0488 17.5527 34.1254 17.5527 34.1254C17.5463 34.1254 17.5463 34.1254 17.5527 34.1254C11.1952 32.3647 11.5666 25.7319 11.637 22.2618C11.7074 18.7918 12.3605 15.9427 14.3004 14.0284C17.7768 10.8785 24.9539 11.3458 24.9539 11.3458C31.0105 11.3714 33.9107 13.1961 34.583 13.8043C36.8174 15.725 37.957 20.3027 37.1247 27.006Z" fill="white"/>
<path d="M28.0331 22.3835C27.8218 22.3835 27.6425 22.217 27.6297 21.9993C27.5593 20.6228 26.9127 19.9506 25.5938 19.8802C25.3697 19.8674 25.1968 19.6753 25.2097 19.4512C25.2225 19.2271 25.4145 19.0543 25.6386 19.0671C27.38 19.1631 28.3532 20.1619 28.4428 21.9545C28.4556 22.1786 28.2828 22.3707 28.0587 22.3771C28.0459 22.3835 28.0395 22.3835 28.0331 22.3835Z" fill="white"/>
<path d="M30.1077 23.0743H30.1013C29.8772 23.0679 29.6979 22.8822 29.7043 22.6581C29.7363 21.2752 29.3394 20.1548 28.4943 19.2329C27.6556 18.311 26.4968 17.8116 24.9666 17.7027C24.7425 17.6835 24.5761 17.4915 24.5953 17.2674C24.6145 17.0433 24.8065 16.8768 25.0306 16.896C26.7593 17.0241 28.1229 17.6259 29.0961 18.6887C30.0757 19.7579 30.5494 21.096 30.5174 22.6774C30.511 22.9014 30.3254 23.0743 30.1077 23.0743Z" fill="white"/>
<path d="M32.233 23.9065C32.0089 23.9065 31.8296 23.7273 31.8296 23.5032C31.8104 21.0255 31.0998 19.1368 29.6528 17.7219C28.2251 16.3262 26.4133 15.6155 24.2813 15.5963C24.0572 15.5963 23.8779 15.4106 23.8779 15.1866C23.8779 14.9625 24.0636 14.7832 24.2813 14.7832C26.6309 14.8024 28.6285 15.5899 30.2098 17.1393C31.7976 18.6886 32.6107 20.827 32.6363 23.4904C32.6427 23.7209 32.4635 23.9065 32.233 23.9065C32.2394 23.9065 32.2394 23.9065 32.233 23.9065Z" fill="white"/>
<path d="M25.6897 27.3967C25.6897 27.3967 26.2595 27.4479 26.5668 27.0702L27.1622 26.3211C27.4503 25.9498 28.1482 25.7129 28.8268 26.0906C29.2046 26.3019 29.8896 26.7244 30.3122 27.0382C30.7667 27.3711 31.6887 28.1394 31.6951 28.1458C32.1368 28.5171 32.2393 29.0613 31.9384 29.6439C31.9384 29.6439 31.9384 29.6503 31.9384 29.6567C31.631 30.2009 31.2149 30.7131 30.6963 31.1869C30.6899 31.1869 30.6899 31.1933 30.6835 31.1933C30.2545 31.5518 29.832 31.7567 29.4222 31.8015C29.371 31.8143 29.3134 31.8143 29.2366 31.8143C29.0573 31.8143 28.878 31.7887 28.6988 31.7311L28.686 31.7119C28.0457 31.5326 26.9829 31.0844 25.2159 30.1049C24.0635 29.4711 23.1095 28.8244 22.2964 28.1778C21.8675 27.8385 21.4321 27.4607 20.984 27.0126C20.9711 26.9997 20.9519 26.9805 20.9391 26.9677C20.9263 26.9549 20.9071 26.9357 20.8943 26.9229C20.8815 26.9101 20.8623 26.8909 20.8495 26.8781C20.8367 26.8653 20.8175 26.8461 20.8047 26.8333C20.3629 26.3851 19.9788 25.9498 19.6395 25.5208C18.9928 24.7141 18.3462 23.7538 17.7124 22.6013C16.7328 20.8279 16.2846 19.7651 16.1054 19.1313L16.0862 19.1185C16.0285 18.9392 16.0029 18.7599 16.0029 18.5807C16.0029 18.5038 16.0029 18.4462 16.0157 18.395C16.067 17.9788 16.2718 17.5627 16.624 17.1337C16.624 17.1273 16.6304 17.1273 16.6304 17.1209C17.1041 16.5959 17.6163 16.1862 18.1605 15.8789C18.1605 15.8789 18.1669 15.8789 18.1733 15.8789C18.7495 15.578 19.2937 15.6804 19.6715 16.1222C19.6715 16.1222 20.4462 17.0505 20.7791 17.5051C21.0928 17.934 21.5153 18.6127 21.7266 18.9904C22.1044 19.6691 21.8675 20.3669 21.4961 20.655L20.7471 21.2504C20.3693 21.5578 20.4205 22.1276 20.4205 22.1276C20.4205 22.1276 21.5282 26.3403 25.6897 27.3967Z" fill="white"/>
</svg>
